# xmcd
#
# Track frame offsets: 
#        150
#        2902
#        12790
#        30573
#        38984
#        50844
#        62312
#        76642
#        86149
#        99648
#        108088
#        121328
#        132420
#        139889
#        147709
#        159550
#        167147
#        175452
#        185307
#        211521
#        266941
#
# Disc length: 3998 seconds
#
# Revision: 2
# Processed by: cddbd v1.5.2PL0 Copyright (c) Steve Scherf et al.
# Submitted via: ExactAudioCopy v0.99pb4
#
DISCID=220f9c15
DTITLE=François Couperin - Trois Leçons de ténèbres pour le Mercredi s
DTITLE=aint, Motets, Magnificat
DYEAR=1997
DGENRE=Classical
TTITLE0=Première Leçon à une voix - Incepit Lamentatio Jeremiae Prophe
TTITLE0=tae
TTITLE1=Première Leçon à une voix - ALEPH
TTITLE2=Première Leçon à une voix - BETH
TTITLE3=Première Leçon à une voix - GIMEL
TTITLE4=Première Leçon à une voix - DALETH
TTITLE5=Première Leçon à une voix - HETH
TTITLE6=Première Leçon à une voix - Jerusalem, convertere ad Dominum D
TTITLE6=eum tuum
TTITLE7=Deuxième Leçon à une voix - VAU
TTITLE8=Deuxième Leçon à une voix - ZAIN
TTITLE9=Deuxième Leçon à une voix - HETH
TTITLE10=Deuxième Leçon à une voix - TETH
TTITLE11=Deuxième Leçon à une voix - Jerusalem, convertere ad Dominum 
TTITLE11=Deum tuum
TTITLE12=Troisième Leçon à deux voix - JOD
TTITLE13=Troisième Leçon à deux voix - CAPH
TTITLE14=Troisième Leçon à deux voix - LAMED
TTITLE15=Troisième Leçon à deux voix - MEM
TTITLE16=Troisième Leçon à deux voix - NUN
TTITLE17=Troisième Leçon à deux voix - Jerusalem, convertere ad Dominu
TTITLE17=m Deum tuum
TTITLE18=Laetentur coeli (Motet de saint Barthélémy)
TTITLE19=Magnificat
TTITLE20=Victoria ! Christo resurgenti (Motet pour le jour de Pâques)
EXTD=YEAR: 1997 ID3G: 32
EXTT0=
EXTT1=
EXTT2=
EXTT3=
EXTT4=
EXTT5=
EXTT6=
EXTT7=
EXTT8=
EXTT9=
EXTT10=
EXTT11=
EXTT12=
EXTT13=
EXTT14=
EXTT15=
EXTT16=
EXTT17=
EXTT18=
EXTT19=
EXTT20=
PLAYORDER=
